name Walk1.mot
datacolumns 19
datarows 22
range 4.22300000 4.24400000
endheader

                time	   L_ground_force_vx	   L_ground_force_vy	   L_ground_force_vz	   L_ground_force_px	   L_ground_force_py	   L_ground_force_pz	   R_ground_force_vx	   R_ground_force_vy	   R_ground_force_vz	   R_ground_force_px	   R_ground_force_py	   R_ground_force_pz	   L_ground_torque_x	   L_ground_torque_y	   L_ground_torque_z	   R_ground_torque_x	   R_ground_torque_y	   R_ground_torque_z	
          4.22300000	          0.00000000	          0.00000000	          0.00000000	          0.00000000	          0.00000000	          0.00000000	          5.59099010	         22.52465413	          0.44379106	          0.15800814	          0.00000000	          0.05168589	          0.00000000	         -0.00000000	          0.00000000	          0.00000000	         -1.47637995	          0.00000000	
          4.22400000	          0.00000000	          0.00000000	          0.00000000	          0.00000000	          0.00000000	          0.00000000	          4.96529288	         19.60691225	          0.51434449	          0.15012743	          0.00000000	          0.04901285	          0.00000000	         -0.00000000	          0.00000000	          0.00000000	         -1.34753239	          0.00000000	
          4.22500000	          0.00000000	          0.00000000	          0.00000000	          0.00000000	          0.00000000	          0.00000000	          4.37403236	         16.86315897	          0.57695557	          0.14234948	          0.00000000	          0.04638188	          0.00000000	         -0.00000000	          0.00000000	          0.00000000	         -1.22454798	          0.00000000	
          4.22600000	          0.00000000	          0.00000000	          0.00000000	          0.00000000	          0.00000000	          0.00000000	          3.81651482	         14.28896907	          0.63206302	          0.13469494	          0.00000000	          0.04379933	          0.00000000	          0.00000000	          0.00000000	          0.00000000	         -1.10739293	          0.00000000	
          4.22700000	          0.00000000	          0.00000000	          0.00000000	          0.00000000	          0.00000000	          0.00000000	          3.29197801	         11.87965283	          0.68009659	          0.12718224	          0.00000000	          0.04127086	          0.00000000	          0.00000000	          0.00000000	          0.00000000	         -0.99601431	          0.00000000	
          4.22800000	          0.00000000	          0.00000000	          0.00000000	          0.00000000	          0.00000000	          0.00000000	          2.79959990	          9.63029625	          0.72147622	          0.11982770	          0.00000000	          0.03880142	          0.00000000	          0.00000000	          0.00000000	          0.00000000	         -0.89034186	          0.00000000	
          4.22900000	          0.00000000	          0.00000000	          0.00000000	          0.00000000	          0.00000000	          0.00000000	          2.33850678	          7.53579868	          0.75661128	          0.11264568	          0.00000000	          0.03639531	          0.00000000	          0.00000000	          0.00000000	          0.00000000	         -0.79028973	          0.00000000	
          4.23000000	          0.00000000	          0.00000000	          0.00000000	          0.00000000	          0.00000000	          0.00000000	          1.90778105	          5.59090799	          0.78589996	          0.10564864	          0.00000000	          0.03405626	          0.00000000	          0.00000000	          0.00000000	          0.00000000	         -0.69575813	          0.00000000	
          4.23100000	          0.00000000	          0.00000000	          0.00000000	          0.00000000	          0.00000000	          0.00000000	          1.50646836	          3.79025326	          0.80972866	          0.09884730	          0.00000000	          0.03178739	          0.00000000	          0.00000000	          0.00000000	          0.00000000	         -0.60663488	          0.00000000	
          4.23200000	          0.00000000	          0.00000000	          0.00000000	          0.00000000	          0.00000000	          0.00000000	          1.13358434	          2.12837522	          0.82847157	          0.09225071	          0.00000000	          0.02959131	          0.00000000	          0.00000000	          0.00000000	          0.00000000	         -0.52279694	          0.00000000	
          4.23300000	          0.00000000	          0.00000000	          0.00000000	          0.00000000	          0.00000000	          0.00000000	          0.78812093	          0.59975433	          0.84249028	          0.08586640	          0.00000000	          0.02747013	          0.00000000	          0.00000000	          0.00000000	          0.00000000	         -0.44411172	          0.00000000	
          4.23400000	          0.00000000	          0.00000000	          0.00000000	          0.00000000	          0.00000000	          0.00000000	          0.46905213	         -0.80116317	          0.85213349	          0.07970044	          0.00000000	          0.02542550	          0.00000000	          0.00000000	          0.00000000	          0.00000000	         -0.37043845	          0.00000000	
          4.23500000	          0.00000000	          0.00000000	          0.00000000	          0.00000000	          0.00000000	          0.00000000	          0.17533945	         -2.07994143	          0.85773677	          0.07375757	          0.00000000	          0.02345864	          0.00000000	          0.00000000	          0.00000000	          0.00000000	         -0.30162938	          0.00000000	
          4.23600000	          0.00000000	          0.00000000	          0.00000000	          0.00000000	          0.00000000	          0.00000000	         -0.09406312	         -3.24213301	          0.85962245	          0.06804127	          0.00000000	          0.02157036	          0.00000000	          0.00000000	          0.00000000	          0.00000000	         -0.23753096	          0.00000000	
          4.23700000	          0.00000000	          0.00000000	          0.00000000	         -0.00000000	          0.00000000	         -0.00000000	         -0.34020452	         -4.29325896	          0.85809949	          0.06255389	          0.00000000	          0.01976112	          0.00000000	          0.00000000	          0.00000000	          0.00000000	         -0.17798489	          0.00000000	
          4.23800000	          0.00000000	          0.00000000	          0.00000000	         -0.00000000	          0.00000000	         -0.00000000	         -0.56413240	         -5.23879058	          0.85346346	          0.05729669	          0.00000000	          0.01803104	          0.00000000	          0.00000000	          0.00000000	          0.00000000	         -0.12282910	          0.00000000	
          4.23900000	          0.00000000	          0.00000000	          0.00000000	         -0.00000000	          0.00000000	         -0.00000000	         -0.76688927	         -6.08413299	          0.84599657	          0.05226996	          0.00000000	          0.01637992	          0.00000000	          0.00000000	          0.00000000	          0.00000000	         -0.07189875	          0.00000000	
          4.24000000	          0.00000000	          0.00000000	          0.00000000	         -0.00000000	          0.00000000	         -0.00000000	         -0.94950902	         -6.83461034	          0.83596771	          0.04747311	          0.00000000	          0.01480730	          0.00000000	          0.00000000	          0.00000000	          0.00000000	         -0.02502702	          0.00000000	
          4.24100000	          0.00000000	          0.00000000	          0.00000000	         -0.00000000	          0.00000000	         -0.00000000	         -1.11301369	         -7.49545258	          0.82363263	          0.04290473	          0.00000000	          0.01331242	          0.00000000	          0.00000000	          0.00000000	          0.00000000	          0.01795406	          0.00000000	
          4.24200000	          0.00000000	          0.00000000	          0.00000000	         -0.00000000	          0.00000000	         -0.00000000	         -1.25841070	         -8.07178369	          0.80923401	          0.03856263	          0.00000000	          0.01189435	          0.00000000	          0.00000000	          0.00000000	          0.00000000	          0.05721285	          0.00000000	
          4.24300000	          0.00000000	          0.00000000	          0.00000000	         -0.00000000	          0.00000000	         -0.00000000	         -1.38669021	         -8.56861133	          0.79300171	          0.03444400	          0.00000000	          0.01055190	          0.00000000	          0.00000000	          0.00000000	          0.00000000	          0.09291751	          0.00000000	
          4.24400000	          0.00000000	          0.00000000	          0.00000000	         -0.00000000	          0.00000000	         -0.00000000	         -1.49882288	         -8.99081783	          0.77515298	          0.03054540	          0.00000000	          0.00928372	          0.00000000	          0.00000000	          0.00000000	          0.00000000	          0.12523530	          0.00000000	
